<?xml version="1.0" encoding="UTF-8"?>
<!DOCTYPE svg PUBLIC "-//W3C//DTD SVG 1.1//EN" "http://www.w3.org/Graphics/SVG/1.1/DTD/svg11.dtd">
<!-- Creator: CorelDRAW (Evaluation Version) -->
<svg xmlns="http://www.w3.org/2000/svg" xml:space="preserve" width="613.773mm" height="351.446mm" version="1.1" style="shape-rendering:geometricPrecision; text-rendering:geometricPrecision; image-rendering:optimizeQuality; fill-rule:evenodd; clip-rule:evenodd"
viewBox="0 0 126799.85 72605.44"
 xmlns:xlink="http://www.w3.org/1999/xlink"
 xmlns:xodm="http://www.corel.com/coreldraw/odm/2003">
 <defs>
  <style type="text/css">
   <![CDATA[
    .str2 {stroke:#D7DA4C;stroke-width:72.31;stroke-miterlimit:22.9256}
    .str0 {stroke:white;stroke-width:61.98;stroke-miterlimit:22.9256}
    .str3 {stroke:#D7DA4C;stroke-width:61.98;stroke-miterlimit:22.9256}
    .str1 {stroke:#E6E6E6;stroke-width:61.98;stroke-miterlimit:22.9256}
    .fil0 {fill:none}
    .fil1 {fill:none;fill-rule:nonzero}
   ]]>
  </style>
 </defs>
 <g id="Layer_x0020_1">
  <metadata id="CorelCorpID_0Corel-Layer"/>
  <g id="_105553272992160">
   <polyline class="fil0 str0" points="120274.19,61830.5 115336.3,66768.39 110398.41,61830.5 "/>
   <line class="fil0 str0" x1="115336.3" y1="61830.5" x2="115336.3" y2= "66768.39" />
   <path class="fil1 str1" d="M102797.4 28.94c-108.79,1922.78 -375.31,3831.66 -818.29,5705.29 -108.58,465.68 -254,912.78 -432.72,1339.91 -3864.05,9772.94 -17573.97,17790.85 -33883.77,23635.67 -20281.4,7268.77 -45534.48,11833.6 -58413.26,11789.08 -3132.87,-10.83 -6227.35,-174.49 -9239.42,-507.66"/>
   <path class="fil1 str1" d="M9.94 25154.47c2931.23,417.07 6039.58,617.17 9239.42,628.22 11418.37,39.23 34190.02,-4145.1 52775.54,-10805.93 8801.01,-3154.54 16390.76,-6627.24 20616.39,-10029.81 2084.44,-1678.43 3477.27,-3478.72 3626.76,-4918"/>
   <path class="fil1 str1" d="M9.94 55593.07c7900.44,272.16 16679.52,-785.71 25550.23,-2568.54 17581.02,-3533.3 35430.04,-10001.82 48273.46,-14955.58 3732.68,-1439.71 7640.2,-3179.04 11381.97,-4489.11 1168.89,-409.63 2284.54,-705.01 3824.12,-966.39 2622.28,-445.33 5315.37,-314.66 7689.6,501.04 2722.49,934.86 4981.42,2657.34 6455.13,5283.85 1385.11,2468.1 1922.24,5398.4 1276.15,8781.72 -576.74,3020.69 -2247.75,6645.82 -5448.89,10865.85 -2712.47,3576.29 -6257.22,8949.47 -9386.24,14544.42"/>
   <path class="fil1 str1" d="M71276.57 72590.32c1176.35,-2607.82 2550.45,-5298.31 4019.95,-7947.01 2357.03,-4247.69 5040.32,-8519.64 7550.13,-12181.85 -24876.81,9710.67 -55764.19,19781.5 -82836.7,18944.95"/>
   <path class="fil1 str2" d="M86853.26 62732.43c-561.37,1942.55 -2544.41,3048.27 -4428.62,2469.52 -1884.25,-578.66 -2956.62,-2622.92 -2395.34,-4565.53 594.44,-2030.64 1714.54,-4424.02 3001.83,-6744.28 1032.38,-1860.39 2207.57,-3731.36 3306.79,-5335.43 -5909.71,2306.9 -14806.11,5655.61 -23753.49,7453.86 -5349.85,1075.18 -10723.88,1584.1 -15569.88,1003.64 -8046.71,-963.75 -15541.24,-5347.64 -16115.27,-14180.57 -223.84,-3446.88 648.43,-7505.54 2984.27,-12224.72 21.26,-42.95 43.32,-84.87 65.86,-126.6 -40.68,-478.82 -60.43,-970.83 -58.59,-1476.34 11.01,-3247.59 933.25,-7056.66 3019.41,-11492.81 856.13,-1831.47 3035.15,-2621.95 4866.6,-1765.81 1831.45,856.17 2621.95,3035.25 1765.71,4866.66 -1611.2,3426.04 -2322.72,6191.61 -2330.32,8391.96 -5.5,1597.09 376.31,2865.45 1050.66,3850.89 691.46,1010.35 1732.72,1802.55 3013.25,2404.55 2376.35,1117.57 5488.29,1598.99 8827.48,1610.48 5001.11,17.21 14974.63,-1815.44 23114.82,-4732.79 3854.67,-1381.66 7178.84,-2902.64 9029.56,-4392.92 1978.46,-1593.1 2536.62,-3437.36 -795.04,-3378.15 -473.44,8.41 -971.31,35.43 -1459.94,62.06 -2056.4,111.79 -4046.72,219.81 -5766.34,-346.49 -3043.08,-1002.38 -4299.9,-3602.34 -4407.63,-6395.86 -167.13,-4339.93 2278.82,-9483.69 6893.29,-10310.24 1791.55,-320.73 3603.62,48.22 5317.13,949.78 1398.56,735.69 2758.36,1854.03 3976.27,3234.22 2477.17,2808.13 4467.32,6896.21 4971.36,11102.62 62.23,286.19 89.08,575.02 82.2,861.26 108.21,1535.36 10.52,3075.97 -341.68,4565.7 -47.5,203.95 -111.23,399.77 -189.46,586.76 -1692.43,4280.46 -7697.14,7792.17 -14840.55,10352.08 -8882.88,3183.58 -19943.28,5182.91 -25583.99,5163.43 -4350.22,-15.02 -8531.76,-702.12 -11928.4,-2299.5 -1459.85,-686.44 -2779.7,-1535.11 -3918.32,-2562.78 -234.67,1112.86 -313.42,2115.59 -254.93,3014.53 130.61,2011.49 1021.61,3533.69 2386.66,4635.36 4593.28,3706.98 12636.78,3474.92 20858.85,1822.4 7700.15,-1547.49 15517.79,-4380.57 21142.97,-6550.25 1634.81,-630.56 3346.19,-1392.36 4985.05,-1966.17 511.97,-179.34 1000.62,-308.77 1674.93,-423.24 1148.52,-195.06 2328.05,-137.86 3367.86,219.44 1192.48,409.42 2181.85,1163.89 2827.3,2314.15 606.61,1081.09 841.88,2364.47 558.89,3846.35 -252.64,1322.97 -984.45,2910.74 -2386.49,4759 -1214.82,1601.78 -2810.87,4026.31 -4203.48,6536.2 -1053.43,1898.73 -1943.5,3766.11 -2361.21,5193.61z"/>
   <path class="fil1 str1" d="M122996.27 28.94c-441.38,2146.79 -654.85,4117.08 -661.03,5921.01 -12.6,3646.51 859.17,6542.42 2398.75,8792.25 578.52,845.31 1264.4,1623.68 2044.94,2338.32m0 19273.41c-763.52,-307.96 -1512.31,-633.92 -2245,-978.52 -3333.26,-1567.28 -6346.55,-3504.91 -8946.43,-5851.43 -535.71,2540.98 -715.51,4830.42 -581.99,6883 298.19,4592.49 2332.51,8067.97 5449.24,10583.42 1871.05,1510.01 3994.02,2732.29 6324.18,3702.44m0 17499.74c-14717.28,-4022.11 -26892.78,-13785.43 -27989.99,-30671.39 -511.21,-7870.01 1480.39,-17136.7 6813.59,-27911.42 48.36,-98.13 98.81,-193.78 150.34,-289.08 -92.88,-1093.22 -138.09,-2216.55 -133.85,-3370.73 6.45,-1889.54 148.31,-3862.48 434.46,-5921.01"/>
   <path class="fil1 str3" d="M9.94 36569.02c1888.55,395.29 3755.82,1089.23 5574.46,2046.1 3193.05,1679.77 6297.82,4233.02 9078.51,7384.4 5655.94,6411.36 10199.74,15745.31 11350.78,25349.41 89.58,412.46 147.03,827.25 173.25,1241.4"/>
   <path class="fil1 str3" d="M17241.77 28.94c-5127.95,1963.56 -10961.13,4123.88 -17231.84,6244.93"/>
   <path class="fil1 str1" d="M40902.07 28.94c-697.78,1161.25 -1521.91,2376.48 -2484.63,3645.6 -2773.65,3656.97 -6417.68,9192.77 -9597.44,14923.33 -2405.03,4335.33 -4437.3,8598.82 -5391.01,11858.14 -1281.73,4435.17 -5809.43,6959.71 -10111.48,5638.4 -4302.02,-1321.29 -6750.56,-5988.78 -5468.83,-10423.99 1357.03,-4636.33 3914.52,-10100.92 6853.56,-15398.47 1951.97,-3517.72 4127.7,-7052.1 6243.38,-10243.02"/>
  </g>
 </g>
</svg>
