<?xml version="1.0" encoding="UTF-8"?>
<!DOCTYPE svg PUBLIC "-//W3C//DTD SVG 1.1//EN" "http://www.w3.org/Graphics/SVG/1.1/DTD/svg11.dtd">
<!-- Creator: CorelDRAW (Evaluation Version) -->
<svg xmlns="http://www.w3.org/2000/svg" xml:space="preserve" width="70.1663mm" height="62.6534mm" version="1.1" style="shape-rendering:geometricPrecision; text-rendering:geometricPrecision; image-rendering:optimizeQuality; fill-rule:evenodd; clip-rule:evenodd"
viewBox="0 0 35284.95 31506.9"
 xmlns:xlink="http://www.w3.org/1999/xlink"
 xmlns:xodm="http://www.corel.com/coreldraw/odm/2003">
 <defs>
  <style type="text/css">
   <![CDATA[
    .fil0 {fill:#606163;fill-rule:nonzero}
   ]]>
  </style>
 </defs>
 <g id="Layer_x0020_1">
  <metadata id="CorelCorpID_0Corel-Layer"/>
  <path class="fil0" d="M30365.62 30084.11c-304.49,1053.53 -1380.04,1653.26 -2401.94,1339.36 -1021.94,-313.84 -1603.57,-1422.59 -1299.13,-2476.16 322.39,-1101.35 929.87,-2399.42 1628.06,-3657.82 559.9,-1009.02 1197.3,-2023.77 1793.46,-2893.75 -3205.18,1251.21 -8030.23,3067.39 -12882.93,4042.67 -2901.54,583.14 -5816.21,859.16 -8444.45,544.36 -4364.21,-522.69 -8428.96,-2900.34 -8740.29,-7690.99 -121.39,-1869.44 351.66,-4070.73 1618.56,-6630.22 11.52,-23.28 23.48,-46.01 35.7,-68.64 -22.08,-259.69 -32.79,-526.56 -31.78,-800.68 5.98,-1761.37 506.14,-3827.29 1637.62,-6233.25 464.31,-993.33 1646.11,-1422.03 2639.45,-957.73 993.28,464.36 1422.03,1646.22 957.63,2639.5 -873.85,1858.13 -1259.75,3358.06 -1263.88,4551.48 -2.97,866.15 204.12,1554.09 569.86,2088.54 374.99,547.98 939.72,977.64 1634.25,1304.11 1288.87,606.17 2976.62,867.26 4787.68,873.5 2712.41,9.3 8121.65,-984.63 12536.55,-2566.88 2090.61,-749.39 3893.52,-1574.3 4897.26,-2382.53 1073.04,-864.04 1375.77,-1864.31 -431.17,-1832.18 -256.82,4.53 -526.81,19.21 -791.83,33.64 -1115.33,60.65 -2194.75,119.23 -3127.44,-187.92 -1650.44,-543.66 -2332.09,-1953.77 -2390.52,-3468.89 -90.67,-2353.76 1235.92,-5143.57 3738.63,-5591.83 971.66,-173.94 1954.48,26.15 2883.79,515.1 758.54,399.03 1496.06,1005.55 2156.58,1754.13 1343.53,1523.01 2422.91,3740.24 2696.27,6021.64 33.74,155.19 48.33,311.83 44.61,467.07 58.69,832.71 5.68,1668.29 -185.31,2476.26 -25.8,110.63 -60.35,216.84 -102.79,318.22 -917.9,2321.58 -4174.63,4226.17 -8048.93,5614.56 -4817.7,1726.68 -10816.41,2811.03 -13875.71,2800.47 -2359.39,-8.15 -4627.26,-380.83 -6469.5,-1247.18 -791.73,-372.28 -1507.57,-832.56 -2125.1,-1389.95 -127.28,603.6 -170.02,1147.41 -138.29,1634.95 70.86,1090.94 554.07,1916.56 1294.45,2514.03 2491.2,2010.55 6853.65,1884.68 11312.95,988.4 4176.29,-839.3 8416.23,-2375.84 11467.13,-3552.57 886.62,-342.01 1814.83,-755.17 2703.66,-1066.4 277.69,-97.26 542.7,-167.46 908.45,-229.51 622.91,-105.81 1262.62,-74.78 1826.6,118.98 646.75,222.07 1183.32,631.26 1533.42,1255.13 328.98,586.3 456.56,1282.38 303.08,2086.08 -136.98,717.55 -533.9,1578.68 -1294.3,2581.11 -658.87,868.72 -1524.52,2183.69 -2279.84,3544.97 -571.32,1029.79 -1054.08,2042.58 -1280.57,2816.81z"/>
 </g>
</svg>
