<?xml version="1.0" encoding="UTF-8"?>
<!DOCTYPE svg PUBLIC "-//W3C//DTD SVG 1.1//EN" "http://www.w3.org/Graphics/SVG/1.1/DTD/svg11.dtd">
<!-- Creator: CorelDRAW (Evaluation Version) -->
<svg xmlns="http://www.w3.org/2000/svg" xml:space="preserve" width="61.941mm" height="61.941mm" version="1.1" style="shape-rendering:geometricPrecision; text-rendering:geometricPrecision; image-rendering:optimizeQuality; fill-rule:evenodd; clip-rule:evenodd"
viewBox="0 0 2662.96 2662.96"
 xmlns:xlink="http://www.w3.org/1999/xlink"
 xmlns:xodm="http://www.corel.com/coreldraw/odm/2003">
 <defs>
  <style type="text/css">
   <![CDATA[
    .fil1 {fill:none}
    .fil0 {fill:white;fill-rule:nonzero}
   ]]>
  </style>
 </defs>
 <g id="Layer_x0020_1">
  <metadata id="CorelCorpID_0Corel-Layer"/>
  <g id="_105553349689088">
   <path class="fil0" d="M2113.19 2211.96c-18.71,64.73 -84.78,101.58 -147.57,82.29 -62.79,-19.28 -98.52,-87.4 -79.82,-152.14 19.81,-67.67 57.13,-147.42 100.03,-224.74 34.4,-61.99 73.56,-124.34 110.19,-177.79 -196.93,76.87 -493.38,188.46 -791.54,248.39 -178.27,35.83 -357.35,52.79 -518.84,33.44 -268.14,-32.11 -517.88,-178.2 -537.01,-472.54 -7.46,-114.86 21.61,-250.1 99.44,-407.36 0.71,-1.43 1.44,-2.82 2.2,-4.22 -1.36,-15.95 -2.02,-32.35 -1.96,-49.2 0.37,-108.22 31.1,-235.15 100.62,-382.98 28.53,-61.03 101.14,-87.37 162.17,-58.84 61.03,28.53 87.37,101.15 58.84,162.17 -53.69,114.16 -77.4,206.32 -77.66,279.64 -0.18,53.22 12.54,95.48 35.01,128.32 23.04,33.67 57.74,60.07 100.41,80.13 79.19,37.24 182.89,53.28 294.16,53.67 166.65,0.57 499,-60.5 770.25,-157.71 128.45,-46.04 239.22,-96.72 300.89,-146.39 65.93,-53.09 84.53,-114.54 -26.5,-112.57 -15.77,0.28 -32.36,1.18 -48.65,2.07 -68.52,3.73 -134.85,7.33 -192.15,-11.54 -101.4,-33.4 -143.29,-120.04 -146.88,-213.13 -5.57,-144.62 75.94,-316.02 229.71,-343.57 59.7,-10.68 120.08,1.61 177.18,31.65 46.6,24.52 91.92,61.78 132.5,107.78 82.55,93.58 148.86,229.8 165.66,369.97 2.07,9.54 2.97,19.16 2.74,28.7 3.61,51.16 0.35,102.5 -11.38,152.14 -1.58,6.79 -3.71,13.32 -6.32,19.55 -56.4,142.63 -256.49,259.66 -494.53,344.96 -296,106.08 -664.57,172.71 -852.53,172.06 -144.96,-0.5 -284.3,-23.4 -397.49,-76.62 -48.65,-22.88 -92.63,-51.16 -130.57,-85.4 -7.82,37.08 -10.45,70.5 -8.5,100.45 4.35,67.03 34.04,117.75 79.53,154.47 153.06,123.53 421.09,115.79 695.08,60.73 256.59,-51.56 517.1,-145.97 704.55,-218.27 54.47,-21.01 111.5,-46.4 166.12,-65.52 17.06,-5.98 33.34,-10.29 55.81,-14.11 38.27,-6.5 77.58,-4.6 112.23,7.31 39.74,13.64 72.7,38.78 94.21,77.11 20.21,36.02 28.05,78.79 18.62,128.17 -8.42,44.08 -32.8,96.99 -79.53,158.58 -40.48,53.37 -93.67,134.17 -140.07,217.81 -35.1,63.27 -64.76,125.5 -78.68,173.07z"/>
   <rect class="fil1" width="2662.96" height="2662.96"/>
  </g>
 </g>
</svg>
